<svg width="197" height="42" viewBox="0 0 197 42" fill="none" xmlns="http://www.w3.org/2000/svg">
<path opacity="0.5" d="M40.0652 2.25671L30.2601 36.9917C30.2102 37.1494 30.0108 37.1967 29.8945 37.0863L23.3301 30.8583L28.2492 13.4514C28.2991 13.2937 28.1495 13.1518 27.9833 13.1991L9.63617 17.8662L3.10498 11.6697C2.98865 11.5593 3.03851 11.3701 3.20469 11.3228L39.7993 2.00444C39.9655 1.97291 40.115 2.11481 40.0652 2.25671Z" fill="#00B37E"/>
<path opacity="0.5" d="M23.3297 30.858L20.8037 39.8452C20.7538 40.0029 20.5544 40.0502 20.4381 39.9398L0.0634003 20.6251C-0.0529313 20.5147 -0.00307518 20.3255 0.163113 20.2782L9.63583 17.8658L23.3297 30.858Z" fill="#00B37E"/>
<path d="M28.2484 13.4511L23.3292 30.858L9.63533 17.8659L27.9825 13.1988C28.1487 13.1515 28.2982 13.2934 28.2484 13.4511Z" fill="#00B37E"/>
<path d="M59.4013 11.3104H62.5745L67.2468 24.6653L71.9192 11.3104H75.0923L68.5211 29.5H65.9726L59.4013 11.3104ZM57.6898 11.3104H60.8505L61.4252 24.328V29.5H57.6898V11.3104ZM73.6432 11.3104H76.8163V29.5H73.0685V24.328L73.6432 11.3104ZM83.8873 27.9759L87.4727 15.9828H91.333L85.8986 31.5363C85.782 31.8778 85.6238 32.2443 85.4239 32.6357C85.2324 33.0271 84.97 33.3978 84.6369 33.7476C84.312 34.1057 83.8998 34.3972 83.4001 34.6221C82.9087 34.8469 82.3049 34.9594 81.5886 34.9594C81.2471 34.9594 80.9681 34.9385 80.7516 34.8969C80.535 34.8553 80.2769 34.797 79.977 34.722V32.086C80.0687 32.086 80.1644 32.086 80.2644 32.086C80.3643 32.0943 80.4601 32.0985 80.5517 32.0985C81.0264 32.0985 81.4137 32.0444 81.7135 31.9361C82.0134 31.8278 82.2549 31.6613 82.4381 31.4364C82.6214 31.2198 82.7671 30.9367 82.8754 30.5869L83.8873 27.9759ZM82.3882 15.9828L85.324 25.7771L85.8362 29.5874L83.3876 29.8498L78.5279 15.9828H82.3882ZM103.638 29.5H100.028V15.3706C100.028 14.2213 100.261 13.251 100.728 12.4598C101.202 11.6686 101.877 11.0689 102.751 10.6608C103.634 10.2527 104.7 10.0487 105.95 10.0487C106.658 10.0487 107.345 10.1194 108.011 10.261C108.677 10.3943 109.364 10.5692 110.072 10.7857L109.548 13.6716C109.09 13.53 108.598 13.3967 108.073 13.2718C107.549 13.1469 106.916 13.0844 106.175 13.0844C105.342 13.0844 104.709 13.2801 104.276 13.6716C103.851 14.0547 103.638 14.621 103.638 15.3706V29.5ZM106.324 15.9828V18.5313H98.0167V15.9828H106.324ZM111.746 15.9828V29.5H108.136V15.9828H111.746ZM118.28 18.8686V29.5H114.682V15.9828H118.055L118.28 18.8686ZM117.755 22.2666H116.781C116.781 21.2672 116.91 20.3677 117.168 19.5682C117.426 18.7603 117.789 18.0732 118.255 17.5069C118.721 16.9322 119.275 16.495 119.917 16.1951C120.566 15.887 121.291 15.7329 122.09 15.7329C122.723 15.7329 123.302 15.8245 123.827 16.0077C124.352 16.191 124.801 16.4825 125.176 16.8822C125.559 17.282 125.851 17.8109 126.051 18.4688C126.259 19.1268 126.363 19.9305 126.363 20.8799V29.5H122.74V20.8675C122.74 20.2678 122.657 19.8014 122.49 19.4683C122.324 19.1351 122.078 18.9019 121.753 18.7687C121.437 18.6271 121.045 18.5563 120.579 18.5563C120.096 18.5563 119.675 18.6521 119.317 18.8436C118.967 19.0352 118.676 19.3017 118.442 19.6432C118.218 19.9763 118.047 20.3677 117.93 20.8175C117.814 21.2672 117.755 21.7503 117.755 22.2666ZM136.395 26.4517V20.4302C136.395 19.9971 136.324 19.6265 136.182 19.3183C136.041 19.0019 135.82 18.7562 135.52 18.5813C135.229 18.4064 134.85 18.3189 134.383 18.3189C133.984 18.3189 133.638 18.3897 133.346 18.5313C133.055 18.6645 132.83 18.8603 132.672 19.1185C132.514 19.3683 132.434 19.664 132.434 20.0054H128.837C128.837 19.4308 128.97 18.8853 129.236 18.3689C129.503 17.8525 129.89 17.3986 130.398 17.0072C130.906 16.6074 131.51 16.2951 132.21 16.0702C132.918 15.8453 133.709 15.7329 134.583 15.7329C135.633 15.7329 136.565 15.9078 137.382 16.2576C138.198 16.6074 138.839 17.1321 139.306 17.8317C139.78 18.5313 140.018 19.4058 140.018 20.4552V26.2394C140.018 26.9806 140.063 27.5886 140.155 28.0633C140.247 28.5297 140.38 28.9378 140.555 29.2876V29.5H136.919C136.744 29.1335 136.611 28.6755 136.52 28.1258C136.436 27.5678 136.395 27.0098 136.395 26.4517ZM136.869 21.2672L136.894 23.3036H134.883C134.408 23.3036 133.996 23.3577 133.646 23.466C133.296 23.5742 133.009 23.7283 132.784 23.9282C132.559 24.1198 132.393 24.3446 132.285 24.6028C132.185 24.861 132.135 25.1442 132.135 25.4523C132.135 25.7605 132.205 26.0395 132.347 26.2893C132.489 26.5309 132.693 26.7224 132.959 26.864C133.226 26.9973 133.538 27.0639 133.896 27.0639C134.437 27.0639 134.908 26.9556 135.308 26.7391C135.708 26.5225 136.016 26.256 136.232 25.9395C136.457 25.6231 136.574 25.3232 136.582 25.0401L137.532 26.5642C137.398 26.9057 137.215 27.2596 136.982 27.6261C136.757 27.9925 136.47 28.3382 136.12 28.663C135.77 28.9795 135.349 29.2418 134.858 29.45C134.367 29.6499 133.784 29.7499 133.109 29.7499C132.251 29.7499 131.472 29.5791 130.773 29.2377C130.082 28.8879 129.532 28.409 129.124 27.801C128.724 27.1847 128.524 26.4851 128.524 25.7022C128.524 24.9943 128.657 24.3654 128.924 23.8158C129.19 23.2661 129.582 22.8038 130.098 22.4291C130.623 22.0459 131.277 21.7586 132.06 21.5671C132.843 21.3672 133.75 21.2672 134.783 21.2672H136.869ZM146.314 18.8686V29.5H142.716V15.9828H146.089L146.314 18.8686ZM145.789 22.2666H144.815C144.815 21.2672 144.944 20.3677 145.202 19.5682C145.46 18.7603 145.823 18.0732 146.289 17.5069C146.755 16.9322 147.309 16.495 147.951 16.1951C148.6 15.887 149.325 15.7329 150.124 15.7329C150.757 15.7329 151.336 15.8245 151.861 16.0077C152.386 16.191 152.835 16.4825 153.21 16.8822C153.593 17.282 153.885 17.8109 154.085 18.4688C154.293 19.1268 154.397 19.9305 154.397 20.8799V29.5H150.774V20.8675C150.774 20.2678 150.691 19.8014 150.524 19.4683C150.357 19.1351 150.112 18.9019 149.787 18.7687C149.471 18.6271 149.079 18.5563 148.613 18.5563C148.13 18.5563 147.709 18.6521 147.351 18.8436C147.001 19.0352 146.71 19.3017 146.476 19.6432C146.252 19.9763 146.081 20.3677 145.964 20.8175C145.848 21.2672 145.789 21.7503 145.789 22.2666ZM162.717 26.939C163.158 26.939 163.55 26.8557 163.891 26.6891C164.233 26.5142 164.499 26.2727 164.691 25.9645C164.891 25.648 164.995 25.2774 165.003 24.8527H168.389C168.38 25.8021 168.126 26.6475 167.627 27.3887C167.127 28.1216 166.457 28.7005 165.615 29.1252C164.774 29.5416 163.833 29.7499 162.792 29.7499C161.743 29.7499 160.826 29.575 160.044 29.2252C159.269 28.8754 158.624 28.3923 158.107 27.776C157.591 27.1513 157.204 26.4268 156.945 25.6022C156.687 24.7694 156.558 23.8782 156.558 22.9288V22.5665C156.558 21.6087 156.687 20.7175 156.945 19.893C157.204 19.0602 157.591 18.3356 158.107 17.7193C158.624 17.0946 159.269 16.6074 160.044 16.2576C160.818 15.9078 161.726 15.7329 162.767 15.7329C163.875 15.7329 164.845 15.9453 165.678 16.37C166.519 16.7948 167.177 17.4028 167.652 18.194C168.135 18.9769 168.38 19.9055 168.389 20.9799H165.003C164.995 20.5301 164.899 20.122 164.716 19.7556C164.541 19.3891 164.283 19.0976 163.941 18.8811C163.608 18.6562 163.196 18.5438 162.705 18.5438C162.18 18.5438 161.751 18.6562 161.418 18.8811C161.085 19.0976 160.826 19.3975 160.643 19.7806C160.46 20.1554 160.331 20.5843 160.256 21.0673C160.189 21.5421 160.156 22.0418 160.156 22.5665V22.9288C160.156 23.4535 160.189 23.9573 160.256 24.4404C160.323 24.9235 160.448 25.3524 160.631 25.7272C160.822 26.1019 161.085 26.3976 161.418 26.6142C161.751 26.8307 162.184 26.939 162.717 26.939ZM176.697 29.7499C175.647 29.7499 174.706 29.5833 173.873 29.2501C173.04 28.9087 172.332 28.4381 171.749 27.8385C171.175 27.2388 170.733 26.5434 170.425 25.7521C170.117 24.9526 169.963 24.1031 169.963 23.2036V22.7039C169.963 21.6795 170.109 20.7425 170.4 19.893C170.692 19.0435 171.108 18.3064 171.649 17.6818C172.199 17.0571 172.865 16.5782 173.648 16.2451C174.431 15.9036 175.314 15.7329 176.297 15.7329C177.255 15.7329 178.104 15.8911 178.845 16.2076C179.587 16.5241 180.207 16.9739 180.707 17.5569C181.215 18.1398 181.598 18.8394 181.856 19.6556C182.114 20.4635 182.243 21.363 182.243 22.3541V23.8532H171.5V21.4546H178.708V21.1798C178.708 20.6801 178.616 20.2345 178.433 19.843C178.258 19.4433 177.992 19.1268 177.634 18.8936C177.275 18.6604 176.817 18.5438 176.259 18.5438C175.785 18.5438 175.376 18.6479 175.035 18.8561C174.694 19.0643 174.415 19.3558 174.198 19.7306C173.99 20.1054 173.832 20.5468 173.723 21.0548C173.623 21.5546 173.573 22.1042 173.573 22.7039V23.2036C173.573 23.745 173.648 24.2447 173.798 24.7028C173.956 25.1608 174.177 25.5564 174.46 25.8896C174.752 26.2227 175.102 26.4809 175.51 26.6641C175.926 26.8474 176.397 26.939 176.921 26.939C177.571 26.939 178.175 26.814 178.733 26.5642C179.299 26.306 179.786 25.9187 180.195 25.4024L181.944 27.3013C181.66 27.7094 181.273 28.1008 180.782 28.4756C180.299 28.8504 179.716 29.1585 179.033 29.4001C178.35 29.6333 177.571 29.7499 176.697 29.7499ZM191.601 25.7646C191.601 25.5065 191.526 25.2733 191.376 25.065C191.226 24.8568 190.947 24.6653 190.539 24.4904C190.139 24.3071 189.56 24.1406 188.802 23.9907C188.119 23.8407 187.482 23.6534 186.891 23.4285C186.308 23.1953 185.8 22.9163 185.367 22.5915C184.942 22.2666 184.609 21.8835 184.367 21.4421C184.126 20.9924 184.005 20.4802 184.005 19.9055C184.005 19.3392 184.126 18.8061 184.367 18.3064C184.617 17.8067 184.971 17.3653 185.429 16.9822C185.895 16.5907 186.462 16.2867 187.128 16.0702C187.803 15.8453 188.561 15.7329 189.402 15.7329C190.576 15.7329 191.584 15.9203 192.425 16.2951C193.275 16.6699 193.924 17.1862 194.374 17.8442C194.832 18.4938 195.061 19.2351 195.061 20.0679H191.463C191.463 19.7181 191.388 19.4058 191.238 19.1309C191.097 18.8478 190.872 18.6271 190.564 18.4688C190.264 18.3023 189.872 18.219 189.389 18.219C188.99 18.219 188.644 18.2898 188.352 18.4313C188.061 18.5646 187.836 18.7478 187.678 18.981C187.528 19.2059 187.453 19.4558 187.453 19.7306C187.453 19.9388 187.495 20.1262 187.578 20.2928C187.669 20.451 187.815 20.5968 188.015 20.73C188.215 20.8633 188.473 20.9882 188.79 21.1048C189.114 21.2131 189.514 21.313 189.989 21.4046C190.963 21.6045 191.834 21.8669 192.6 22.1917C193.366 22.5082 193.974 22.9413 194.424 23.4909C194.874 24.0323 195.099 24.7444 195.099 25.6272C195.099 26.2269 194.965 26.7766 194.699 27.2763C194.432 27.776 194.049 28.2132 193.549 28.588C193.05 28.9545 192.45 29.2418 191.75 29.45C191.059 29.6499 190.28 29.7499 189.414 29.7499C188.157 29.7499 187.091 29.525 186.216 29.0752C185.35 28.6255 184.692 28.055 184.242 27.3637C183.801 26.6641 183.58 25.9479 183.58 25.215H186.991C187.007 25.7063 187.132 26.1019 187.365 26.4018C187.607 26.7016 187.911 26.9181 188.277 27.0514C188.652 27.1847 189.056 27.2513 189.489 27.2513C189.956 27.2513 190.343 27.1888 190.651 27.0639C190.959 26.9306 191.192 26.7557 191.351 26.5392C191.517 26.3143 191.601 26.0561 191.601 25.7646Z" fill="#E1E1E6"/>
</svg>
